<svg xmlns="http://www.w3.org/2000/svg" viewBox="0 0 24 24" fill="currentColor"><defs><style>.cls-1{fill-rule:evenodd;}</style></defs><g id="icon-danger"><g id="Path_5" data-name="Path 5"><rect x="11.5" y="9.514" width="1" height="4"/></g><g id="Oval"><path class="cls-1" d="M12,17.014a1,1,0,1,0-1-1A1,1,0,0,0,12,17.014Z"/></g><g id="Triangle"><path d="M20.252,20.514H3.748a1.5,1.5,0,0,1-1.292-2.261L10.707,4.226h0A1.487,1.487,0,0,1,12,3.486h0a1.487,1.487,0,0,1,1.293.74l8.251,14.027a1.5,1.5,0,0,1-1.292,2.261ZM11.569,4.732,3.318,18.761a.5.5,0,0,0,.43.753h16.5a.5.5,0,0,0,.431-.753L12.431,4.732A.492.492,0,0,0,12,4.486h0a.492.492,0,0,0-.431.246Z"/></g></g></svg>
