<svg xmlns="http://www.w3.org/2000/svg" viewBox="0 0 24 24" fill="currentColor"><defs><style>.cls-1{fill-rule:evenodd;}</style></defs><g id="icon-help"><g id="Oval_2" data-name="Oval 2"><path d="M12.5,14.5h-1V14a3.189,3.189,0,0,1,1.814-2.917,2.932,2.932,0,0,0,.451-.312,2.5,2.5,0,1,0-4.126-2.6l-.165.472-.944-.33.165-.472a3.5,3.5,0,1,1,5.776,3.632,3.483,3.483,0,0,1-.63.456A2.187,2.187,0,0,0,12.5,14Z"/></g><g id="Oval"><path class="cls-1" d="M12,18a1,1,0,1,0-1-1A1,1,0,0,0,12,18Z"/></g><g id="Oval_2-2" data-name="Oval 2"><path d="M12,22.5A10.5,10.5,0,1,1,22.5,12,10.512,10.512,0,0,1,12,22.5Zm0-20A9.5,9.5,0,1,0,21.5,12,9.511,9.511,0,0,0,12,2.5Z"/></g></g></svg>
