<svg xmlns="http://www.w3.org/2000/svg" viewBox="0 0 24 24" fill="currentColor"><path id="icon-hide" d="M22.447,11.28a12.9,12.9,0,0,0-4.738-4.773l2.644-2.641a.5.5,0,1,0-.7-.719l-.012.012-2.873,2.87A11.4,11.4,0,0,0,12,5.01c-7.225,0-10.416,6.207-10.447,6.27l-.112.223.112.224A12.881,12.881,0,0,0,6.292,16.5L2.646,20.14A.5.5,0,0,0,3,20.993a.493.493,0,0,0,.353-.146l3.874-3.87A11.386,11.386,0,0,0,12,18c7.225,0,10.415-6.206,10.447-6.269l.112-.224ZM2.573,11.5A11.143,11.143,0,0,1,12,6.01a10.461,10.461,0,0,1,4.01.781L14.086,8.713A3.462,3.462,0,0,0,12,8.007a3.5,3.5,0,0,0-3.5,3.5,3.463,3.463,0,0,0,.706,2.084L7.03,15.761A11.929,11.929,0,0,1,2.573,11.5Zm11.926,0a2.5,2.5,0,0,1-3.875,2.081l3.459-3.455A2.479,2.479,0,0,1,14.5,11.5Zm-5,0a2.5,2.5,0,0,1,3.876-2.081l-3.46,3.456A2.479,2.479,0,0,1,9.5,11.5ZM12,17a10.46,10.46,0,0,1-4.01-.78L9.914,14.3a3.481,3.481,0,0,0,4.878-4.876L16.97,7.245A11.939,11.939,0,0,1,21.427,11.5,11.1,11.1,0,0,1,12,17Z"/></svg>
