<svg id="Ebene_1" data-name="Ebene 1" xmlns="http://www.w3.org/2000/svg" viewBox="0 0 21.118 17.981"><path id="icon-hide" d="M21.555,10.385a12.9,12.9,0,0,0-4.738-4.773l2.644-2.641a.5.5,0,1,0-.707-.707l-2.873,2.87a11.4,11.4,0,0,0-4.773-1.019C3.883,4.115.692,10.322.661,10.385l-.112.223.112.224A12.884,12.884,0,0,0,5.4,15.6L1.754,19.245a.5.5,0,0,0,.354.853.494.494,0,0,0,.353-.146l3.874-3.87A11.4,11.4,0,0,0,11.108,17.1c7.225,0,10.415-6.206,10.447-6.269l.112-.224Zm-19.874.223a11.141,11.141,0,0,1,9.427-5.493,10.449,10.449,0,0,1,4.01.781L13.194,7.818a3.464,3.464,0,0,0-2.086-.706,3.5,3.5,0,0,0-3.5,3.5,3.464,3.464,0,0,0,.706,2.084L6.138,14.866A11.935,11.935,0,0,1,1.681,10.608Zm11.926,0a2.5,2.5,0,0,1-3.875,2.081l3.459-3.455A2.476,2.476,0,0,1,13.607,10.608Zm-5,0a2.5,2.5,0,0,1,3.876-2.081l-3.46,3.456A2.479,2.479,0,0,1,8.608,10.608Zm2.5,5.493a10.468,10.468,0,0,1-4.01-.78L9.022,13.4A3.481,3.481,0,0,0,13.9,8.524L16.078,6.35a11.934,11.934,0,0,1,4.457,4.259A11.107,11.107,0,0,1,11.108,16.1Z" transform="translate(-0.549 -2.117)"/></svg>