<svg viewBox="0 0 555 70" fill="currentColor" xmlns="http://www.w3.org/2000/svg">
    <path d="M87.0017 0.265077C87.6618 0.265077 88.0579 0.66114 88.0579 1.32124V67.9918C88.0579 68.6519 87.6618 69.0479 87.0017 69.0479H75.2519C74.5918 69.0479 74.1957 68.6519 74.1957 67.9918V27.0653C74.1957 27.5934 74.0637 27.8574 73.7996 28.3855L51.2241 68.2558C50.96 68.7839 50.564 68.9159 50.0359 68.9159H37.89C37.3619 68.9159 36.9658 68.6519 36.7018 68.2558L13.9942 28.3855C13.8622 28.1215 13.7302 27.8574 13.7302 27.7254V67.9918C13.7302 68.6519 13.3341 69.0479 12.674 69.0479H1.05617C0.396063 68.9159 0 68.6519 0 67.9918V1.18922C0 0.529119 0.396063 0.133057 1.05617 0.133057H12.806C13.2021 0.133057 13.5981 0.265077 13.7302 0.529119L44.095 52.8094L74.4597 0.529119C74.5918 0.265077 74.9878 0.133057 75.3839 0.133057H87.0017V0.265077Z" fill="black" />
    <path d="M268.924 0.264345C269.584 0.264345 269.98 0.660407 269.98 1.32051V11.8822C269.98 12.5423 269.584 12.9383 268.924 12.9383H229.714V68.1231C229.714 68.7832 229.318 69.1792 228.657 69.1792H216.908C216.247 69.1792 215.851 68.7832 215.851 68.1231V12.8063H176.641C175.981 12.8063 175.585 12.4103 175.585 11.7502V1.18849C175.585 0.528387 175.981 0.132324 176.641 0.132324H268.924V0.264345Z" fill="black" />
    <path d="M360.529 41.4545C361.321 41.4545 361.717 41.8506 361.453 42.5107C355.644 60.0695 339.538 69.1789 317.094 69.1789H316.83H314.85C292.274 68.9149 271.547 60.0695 269.567 38.022C269.435 36.9658 269.435 35.9097 269.435 34.7215V34.5895C269.435 34.4574 269.435 34.4574 269.435 34.4574C269.435 33.2692 269.567 32.2131 269.567 31.1569C271.547 9.10944 292.274 0.264042 314.85 0H316.962H317.226C339.802 0 355.908 9.10944 361.585 26.6682C361.849 27.3283 361.321 27.7244 360.661 27.7244H348.383C347.723 27.7244 347.591 27.4603 347.195 26.9322C341.782 17.4267 332.541 13.0701 316.962 13.0701H314.85C300.856 13.3341 283.297 19.143 283.165 34.7215C283.297 50.1679 300.856 56.1088 314.85 56.3729H316.83C332.408 56.3729 341.782 52.0162 347.063 42.5107C347.459 41.9826 347.591 41.7186 348.251 41.7186H360.529V41.4545Z" fill="black" />
    <path d="M443.439 68.9152C442.778 68.9152 442.382 68.5191 442.382 67.859V40.7947H381.917V67.859C381.917 68.5191 381.521 68.9152 380.861 68.9152H369.111C368.451 68.9152 368.055 68.5191 368.055 67.859V1.18849C368.055 0.528387 368.451 0.132324 369.111 0.132324H380.861C381.521 0.132324 381.917 0.528387 381.917 1.18849V28.2528H442.382V1.18849C442.382 0.528387 442.778 0.132324 443.439 0.132324H455.188C455.849 0.132324 456.245 0.528387 456.245 1.18849V67.859C456.245 68.5191 455.849 68.9152 455.188 68.9152H443.439Z" fill="black" />
    <path d="M554.201 41.4548C554.201 56.6372 541.791 68.9152 526.741 68.9152H466.935C466.275 68.9152 465.879 68.5191 465.879 67.859V1.18849C465.879 0.528387 466.275 0.132324 466.935 0.132324H526.741C541.923 0.132324 554.201 12.5423 554.201 27.5927V41.4548ZM540.471 27.7247C540.471 20.1995 534.398 12.8063 526.741 12.8063H479.609V56.3732H526.741C534.398 56.3732 540.471 48.98 540.471 41.4548V27.7247Z" fill="black" />
    <path d="M187.474 67.7266L149.716 0.92402C149.452 0.395937 149.056 0.263916 148.528 0.263916H132.289C131.761 0.263916 131.365 0.527958 131.101 0.92402L93.2108 67.7266C92.8148 68.3867 93.0788 68.9147 94.0029 68.9147H107.205C107.733 68.9147 108.129 68.6507 108.393 68.2546L140.342 11.4857L172.291 68.2546C172.555 68.7827 172.951 68.9147 173.479 68.9147H186.682C187.474 68.9147 187.87 68.3867 187.474 67.7266Z" fill="black" />
</svg>
