<svg xmlns="http://www.w3.org/2000/svg" viewBox="0 0 24 24" fill="currentColor"><g id="icon-show"><path d="M22.447,11.277c-.032-.062-3.222-6.27-10.447-6.27S1.584,11.214,1.553,11.277l-.112.223.112.224c.031.068,3.222,6.269,10.447,6.269s10.415-6.2,10.447-6.269l.112-.224ZM12,16.993A11.144,11.144,0,0,1,2.573,11.5,11.138,11.138,0,0,1,12,6.007,11.138,11.138,0,0,1,21.427,11.5,11.107,11.107,0,0,1,12,16.993Z"/><path d="M12,8a3.5,3.5,0,1,0,3.5,3.5h0A3.5,3.5,0,0,0,12,8Zm0,6a2.5,2.5,0,1,1,2.5-2.5A2.5,2.5,0,0,1,12,14Z"/></g></svg>
