<svg id="Ebene_1" data-name="Ebene 1" xmlns="http://www.w3.org/2000/svg" viewBox="0 0 21.118 12.986"><g id="icon-show"><path d="M21.555,10.385c-.032-.063-3.222-6.27-10.447-6.27S.692,10.322.661,10.385l-.112.223.112.224C.692,10.9,3.883,17.1,11.108,17.1S21.523,10.9,21.555,10.832l.112-.224ZM11.108,16.1a11.139,11.139,0,0,1-9.427-5.493,11.141,11.141,0,0,1,9.427-5.493,11.14,11.14,0,0,1,9.427,5.494A11.107,11.107,0,0,1,11.108,16.1Z" transform="translate(-0.549 -4.115)"/><path d="M11.108,7.112a3.5,3.5,0,1,0,3.5,3.5A3.5,3.5,0,0,0,11.108,7.112Zm0,5.993a2.5,2.5,0,1,1,2.5-2.5A2.5,2.5,0,0,1,11.108,13.105Z" transform="translate(-0.549 -4.115)"/></g></svg>