<svg xmlns="http://www.w3.org/2000/svg" viewBox="0 0 658 84.101" fill="currentColor"><g id="logo"><path d="M102.926,1.23V1.069H89.182a1.2,1.2,0,0,0-1.093.482L52.166,65.106,16.243,1.551a1.2,1.2,0,0,0-1.093-.482H1.249A1.166,1.166,0,0,0,0,2.353v81.21c0,.8.469,1.123,1.249,1.283H14.994a1.165,1.165,0,0,0,1.249-1.283V34.612a2.735,2.735,0,0,0,.313.8L43.42,83.883a1.63,1.63,0,0,0,1.405.8H59.194a1.359,1.359,0,0,0,1.406-.8L87.308,35.415a3.162,3.162,0,0,0,.468-1.6V83.563a1.165,1.165,0,0,0,1.25,1.283h13.9a1.165,1.165,0,0,0,1.25-1.283V2.514A1.166,1.166,0,0,0,102.926,1.23Z" transform="translate(0 -0.899)"/><path d="M318.148,1.222v-.16H208.974a1.165,1.165,0,0,0-1.249,1.284V15.185a1.165,1.165,0,0,0,1.249,1.284h46.387V83.716A1.166,1.166,0,0,0,256.611,85h13.9a1.166,1.166,0,0,0,1.25-1.284V16.63h46.387a1.165,1.165,0,0,0,1.249-1.284V2.506A1.165,1.165,0,0,0,318.148,1.222Z" transform="translate(0 -0.899)"/><path d="M374.857,16.788h2.5c18.43,0,29.363,5.3,35.767,16.852.468.641.624.962,1.405.962h14.526c.781,0,1.405-.481,1.093-1.284C423.431,11.973,404.376.9,377.669.9h-2.812c-26.708.321-51.229,11.074-53.571,37.876,0,1.284-.157,2.568-.157,4.013v.321a32.943,32.943,0,0,0,.157,4.012c2.342,26.8,26.863,37.555,53.571,37.876h2.655c26.552,0,45.607-11.074,52.479-32.419.312-.8-.156-1.284-1.094-1.284v.321H414.372c-.781,0-.937.321-1.406.963C406.719,64.133,395.63,69.429,377.2,69.429h-2.343c-16.555-.321-37.328-7.543-37.484-26.32C337.529,24.17,358.3,17.109,374.857,16.788Z" transform="translate(0 -0.899)"/><path d="M540.871,1.062h-13.9a1.166,1.166,0,0,0-1.25,1.284v32.9H454.188V2.346a1.165,1.165,0,0,0-1.249-1.284h-13.9a1.165,1.165,0,0,0-1.249,1.284V83.4a1.165,1.165,0,0,0,1.249,1.284h13.9a1.165,1.165,0,0,0,1.249-1.284v-32.9h71.533V83.4a1.166,1.166,0,0,0,1.25,1.284h13.9a1.166,1.166,0,0,0,1.25-1.284V2.346A1.166,1.166,0,0,0,540.871,1.062Z" transform="translate(0 -0.899)"/><path d="M625.514,1.062H554.762a1.166,1.166,0,0,0-1.25,1.284V83.4a1.166,1.166,0,0,0,1.25,1.284h70.752C643.319,84.679,658,69.753,658,51.3V34.445C658,16.148,643.475,1.062,625.514,1.062ZM641.757,51.3c0,9.148-7.184,18.136-16.243,18.136H569.755V16.469h55.759c9.059,0,16.243,8.988,16.243,18.136Z" transform="translate(0 -0.899)"/><path d="M177.12,2.022a1.36,1.36,0,0,0-1.406-.8H156.5a1.63,1.63,0,0,0-1.4.8L110.272,83.231c-.468.8-.156,1.445.937,1.445h15.619a1.632,1.632,0,0,0,1.406-.8l37.8-69.012,37.8,69.012a1.358,1.358,0,0,0,1.405.8h15.619c.937,0,1.405-.642.937-1.445Z" transform="translate(0 -0.899)"/></g></svg>
